<?xml version="1.0" encoding="UTF-8" standalone="no"?>
<svg width="60px" height="59px" viewBox="0 0 60 59" version="1.1" xmlns="http://www.w3.org/2000/svg" xmlns:xlink="http://www.w3.org/1999/xlink">
    <!-- Generator: Sketch Beta 42 (36679) - http://www.bohemiancoding.com/sketch -->
    <title>icon</title>
    <desc>Created with Sketch Beta.</desc>
    <defs>
        <polygon id="path-1" points="59.1791524 0.12686719 0.0302142261 0.12686719 0.0302142261 58.3401243 59.1791524 58.3401243 59.1791524 0.12686719"></polygon>
        <polygon id="path-3" points="59.1790689 0.12686719 0.0305480849 0.12686719 0.0305480849 58.3401243 59.1790689 58.3401243 59.1790689 0.12686719"></polygon>
    </defs>
    <g id="Page-1" stroke="none" stroke-width="1" fill="none" fill-rule="evenodd">
        <g id="资源" transform="translate(-106.000000, -1395.000000)">
            <g id="支付宝品牌设计模版" transform="translate(74.000000, 1363.000000)">
                <g id="icon" transform="translate(32.000000, 32.000000)">
                    <g id="Group-7" transform="translate(0.000000, 0.285039)">
                        <mask id="mask-2" fill="white">
                            <use xlink:href="#path-1"></use>
                        </mask>
                        <g id="Clip-6"></g>
                        <path d="M48.7243624,36.6536611 C57.245275,39.4628631 59.1791524,39.6140328 59.1791524,39.6140328 L59.1791524,9.4530061 C59.1791524,4.30088011 54.9416489,0.126620046 49.7067421,0.126620046 L9.50512844,0.126620046 C4.27063897,0.126620046 0.0302142261,4.30088011 0.0302142261,9.4530061 L0.0302142261,49.0157977 C0.0302142261,54.1654523 4.27063897,58.3401243 9.50512844,58.3401243 L49.7067421,58.3401243 C54.9416489,58.3401243 59.1791524,54.1654523 59.1791524,49.0157977 L59.1791524,48.6150127 C59.1791524,48.6150127 43.7857554,42.2988391 36.0122693,38.6205144 C30.7990633,44.9338047 24.0734768,48.7649467 17.0924882,48.7649467 C10.1724288,48.7649467 5.23382176,44.7789279 4.67252156,40.5902511 L4.67252156,40.6075512 C4.67252156,40.6075512 3.15638505,36.2771786 6.86639154,31.9014962 C8.09582676,30.4499379 10.1586571,29.0478083 13.3783084,28.2676575 C18.4108133,27.0512977 26.4255124,29.0276249 33.9344153,31.4656992 C35.284457,29.0173272 36.4216637,26.3213994 37.2679959,23.4475281 L14.1249003,23.4475281 L14.1249003,21.1400281 L26.0570157,21.1400281 L26.0570157,17.0057229 L11.6046833,17.0057229 L11.6046833,14.698223 L26.0570157,14.698223 L26.0570157,8.79766293 C26.0570157,8.79766293 26.0570157,7.80414455 27.0811277,7.80414455 L32.9132245,7.80414455 L32.9132245,14.698223 L47.2036354,14.698223 L47.2036354,17.0057229 L32.9132245,17.0057229 L32.9132245,21.1400281 L44.5774182,21.1400281 C43.4623296,25.6417538 41.7646573,29.7818256 39.6388111,33.4206073 C43.1785496,34.6793934 46.3560512,35.8730983 48.7243624,36.6536611" id="Fill-5" fill="#00A0E8" mask="url(#mask-2)"></path>
                    </g>
                    <g id="Group-10" transform="translate(0.000000, 0.285039)">
                        <mask id="mask-4" fill="white">
                            <use xlink:href="#path-3"></use>
                        </mask>
                        <g id="Clip-9"></g>
                        <path d="M59.1790689,48.6150127 L59.1790689,49.0157977 C59.1790689,54.1654523 54.9419828,58.3401243 49.707076,58.3401243 L9.5054623,58.3401243 C4.2705555,58.3401243 0.0305480849,54.1654523 0.0305480849,49.0157977 L0.0305480849,9.4530061 C0.0305480849,4.30088011 4.2705555,0.126620046 9.5054623,0.126620046 L49.707076,0.126620046 C54.9419828,0.126620046 59.1790689,4.30088011 59.1790689,9.4530061 L59.1790689,39.6136209 L59.1790689,48.6150127 Z" id="Fill-8" fill="#00A0E8" mask="url(#mask-4)"></path>
                    </g>
                    <path d="M16.0133729,45.1780241 C6.8113883,45.1780241 4.09043865,38.0438042 8.63801354,34.1414024 C10.1558193,32.8228898 12.9289344,32.1786681 14.4070945,32.0345008 C19.8736159,31.5019058 24.9324121,33.5548476 30.905147,36.4237761 C26.7064546,41.8123364 21.3613744,45.1780241 16.0133729,45.1780241 M48.7298711,36.9641973 C46.3640638,36.1848703 43.1873968,34.9919892 39.649745,33.7319674 C41.7743392,30.0973048 43.4699249,25.9576448 44.5862654,21.4592144 L32.9266623,21.4592144 L32.9266623,17.3265569 L47.2095613,17.3265569 L47.2095613,15.0198807 L32.9266623,15.0198807 L32.9266623,8.12992136 L27.0979041,8.12992136 C26.0754614,8.12992136 26.0754614,9.12302784 26.0754614,9.12302784 L26.0754614,15.0198807 L11.6302235,15.0198807 L11.6302235,17.3265569 L26.0754614,17.3265569 L26.0754614,21.4592144 L14.1491885,21.4592144 L14.1491885,23.7667144 L37.2797644,23.7667144 C36.4334323,26.635231 35.2970602,29.3311587 33.9482704,31.7791188 C26.4422888,29.3418683 18.4334323,27.3655411 13.401762,28.581489 C10.185032,29.3628755 8.11176852,30.7551194 6.89360104,32.2136801 C1.30605583,38.9055125 5.31444867,49.0693044 17.1159418,49.0693044 C24.0927571,49.0693044 30.8150051,45.23981 36.0248725,38.9306388 C43.7946026,42.6073158 59.1792358,48.9193704 59.1792358,48.9193704 L59.1792358,39.9229214 C59.1792358,39.9229214 57.2474451,39.7713399 48.7298711,36.9641973" id="Fill-11" fill="#FEFEFE"></path>
                </g>
            </g>
        </g>
    </g>
</svg>