<?xml version="1.0" standalone="no"?><!DOCTYPE svg PUBLIC "-//W3C//DTD SVG 1.1//EN" "http://www.w3.org/Graphics/SVG/1.1/DTD/svg11.dtd"><svg t="1514778787180" class="icon" style="" viewBox="0 0 1024 1024" version="1.1" xmlns="http://www.w3.org/2000/svg" p-id="1008" xmlns:xlink="http://www.w3.org/1999/xlink" width="64" height="64"><defs><style type="text/css"></style></defs><path d="M992 214.176c0-25.568-19.2-54.336-44.8-63.936C819.2 92.704 582.4 0 512 0 425.6 0 89.6 143.872 76.8 147.072 51.2 159.872 32 185.408 32 214.176c3.2 99.104-12.8 246.176 41.6 377.248 121.6 284.512 371.2 418.784 432 431.584h12.8c70.4-16 313.6-163.04 428.8-431.584 57.6-131.072 41.6-278.144 44.8-377.248z m-320 329.28c19.2 0 32 12.8 32 32 0 19.168-12.8 31.936-32 31.936h-128v95.936c0 19.168-12.8 31.968-32 31.968s-32-12.8-32-32v-95.904h-128c-19.2 0-32-12.8-32-31.968s12.8-31.968 32-31.968h128v-63.936h-128c-19.2 0-32-12.8-32-31.968 0-19.2 12.8-31.968 32-31.968h70.4l-67.2-111.872c-9.6-16-3.2-35.2 12.8-41.568 16-9.6 35.2-3.2 44.8 12.8l86.4 143.84h28.8l86.4-143.84c9.6-16 28.8-19.2 44.8-12.8 16 9.6 19.2 28.8 12.8 41.568l-70.4 111.872H672c19.2 0 32 12.8 32 32 0 19.168-12.8 31.936-32 31.936h-128v63.936h128z" fill="#4FC2B9" p-id="1009"></path></svg>